<svg xmlns="http://www.w3.org/2000/svg" viewBox="0 0 760 214.86"><title>stabilah</title><path d="M139.58,258.12c0,1.4-.47,2.79-.24,4.42a15,15,0,0,1-1.16,4,24.91,24.91,0,0,1-1.63,4.43.51.51,0,0,1-.47.47,4.57,4.57,0,0,0-1.86,4.66c0,.46-.24.69-.24.93-.7.93-1.63,1.63-1.86,2.33-.47,1.16-1.63.93-2.33,1.4a2.77,2.77,0,0,1-.93,2.56,8,8,0,0,0-2.56,3,16.82,16.82,0,0,0-1.63,2.79c-.7.93-1.87.93-2.34,2.1v.23c-3.26,1.4-4.65,4.89-7.45,7a8,8,0,0,1-2.1.93,19.7,19.7,0,0,1-2.79,1.87.23.23,0,0,0-.23.23c-4,1.86-7.46,4.66-11.89,5.36-.93.23-2.09.7-3,.93-5.36,1.86-10.72,3.49-16.54,3.49a5.64,5.64,0,0,1-3.27-.69,2.87,2.87,0,0,0-2.33-.47c-1.63.47-3-.23-4.42-.47a21.08,21.08,0,0,1-3.73-.69c-1.4-.7-3-.47-4.43-.47-1.63-.23-2.79-.7-3.49-2.33,0-.23-.47-.47-.47-.7a5.78,5.78,0,0,1-1.4,1.16c-2.56-1.63-5.12-3.72-7.68-4.89-2.33-1.16-4.43-2.79-6.53-4a7,7,0,0,1-3-2.79l-.7-.7a21.55,21.55,0,0,1-4-4c-.93-1.4-2.09-2.57-3-4.2-.47-1.16-1.4-1.86-2.1-3-2.33-3.5-3.73-7.46-5.12-11.42a.23.23,0,0,1-.24-.23c.7-3-1.16-5.36-1.63-8.16a61.24,61.24,0,0,1-.7-11.41,49.39,49.39,0,0,1,1.63-10.25c.24-.7.47-1.17.7-1.87.24-.46.7-.93.7-1.39-.23-1.87.93-3.27,1.63-4.66,1.4-2.57,2.8-5.13,4.19-7.46a22.13,22.13,0,0,1,2.1-2.79c.23-.47.7-.7.93-1.17,1.4-3,3.5-5.36,5.83-7.92a2.67,2.67,0,0,1,4,0,1.75,1.75,0,0,1,.23,1.16,9,9,0,0,1-.46,1.4,21.1,21.1,0,0,1,2.09-1.16A38.44,38.44,0,0,1,49,213.15a2.84,2.84,0,0,1,3.5.24c.69.7.69,1.4-.47,1.86a.81.81,0,0,1-.47.23c0,.24,0,.47.24.47l.46.47a.8.8,0,0,1-.23.46c-1.17.7-2.33,1.17-3.73,1.87-2.79,1.39-4.43,4.19-6.29,6.75a17.79,17.79,0,0,0-2.56,3.26c-.93,1.4-1.4,2.8-2.1,4a43.59,43.59,0,0,0-4.43,17.94,42.68,42.68,0,0,0,.47,5.13c.7,5.82,1.63,11.65,4.89,16.77,2.1,3.26,4,6.53,6.76,9.09a41.33,41.33,0,0,0,8.85,6.52,109.72,109.72,0,0,0,10.49,4.89,12.11,12.11,0,0,0,4.19.94h.93c4,1.16,7.69.23,11.65-.24a9.42,9.42,0,0,0,4.19-1.16c6.76-2.57,13.28-5.36,19.11-9.79,2.09-1.63,3.73-3.26,5.59-4.89a1.41,1.41,0,0,0,.23-.93,3.36,3.36,0,0,1,2.1-1.87v-.23c.23.23.46.47.46.23a10,10,0,0,0,1.63-1.63,29.86,29.86,0,0,0,4.9-11.88,1.41,1.41,0,0,0,.23-.93c0-.7-.47-1.16-1.4-.93-.23,0-.7.46-1.16,0,0-.23,0-.93.23-1.17,1.4-1.39,1.16-3.26,1.16-5.12a.8.8,0,0,0-.46-.23c-.93.23-.7.93-.93,1.39a4.48,4.48,0,0,1-1.4-4.19,4.43,4.43,0,0,0-.47-3,32.34,32.34,0,0,1-1.39-4.43,37.94,37.94,0,0,0-2.57-4,.23.23,0,0,1-.23-.23c-.23-1.86-1.86-3.26-2.56-4.89-.7-1.17-1.63-2.1-2.33-3.26-.24-.47-.7-.7-.93-1.4a12,12,0,0,0-3.5-4.19c-.23,0-.23,0-.23-.24-2.1-3.49-6.06-5.36-8.39-8.85-1.86-1.16-2.79-3-4.66-4-.46-.23-1.16-.7-1.16-1.17-.24-1.39-1.4-2.09-1.87-3-.7-1.4-1.63-1.4-2.79-1.64-.93-.69-.7-2.09-1.87-2.56-.69-.23-1.16-1.16-2.09-1.63a5.62,5.62,0,0,1-3-4.42,7.16,7.16,0,0,1-4.89-3.27A8.33,8.33,0,0,0,68.05,192c-.23-.23-.69-.46-.69-.7-.24-2.09-1.64-2.79-3.27-3.26a3.15,3.15,0,0,1-1.63-1.39c-.46-.7-.93-2.1-1.63-2.57A5.82,5.82,0,0,1,59,181.7c-.93-1.39-2.1-2.79-3.26-4.19-.24-.7-.7-1.17-.94-1.86a29.33,29.33,0,0,0-2.09-5.13,11.93,11.93,0,0,1-1.4-5.13,17.76,17.76,0,0,0-.47-3.26c0-.46-.23-1.16,0-1.63.7-.93.24-2.09-.23-3,0-.23.23-.46.47-1.16.7.93,1.4,1.63,1.86,2.33-1.16,3.49-.23,6.75,1.17,9.78a.79.79,0,0,0,1.39-.23c0-.46.24-.93.24-1.4a42.45,42.45,0,0,1-1.17-5.36,36.35,36.35,0,0,1,2.1-17.93A20.17,20.17,0,0,1,59,138.37a7.49,7.49,0,0,0,.46-3.26v-.93c1.87-1.17,1.17-3.73,2.57-5.13s2.79-2.56,4.19-4c.23-.23.7-.46.93-.93a8.11,8.11,0,0,1,4.43-2.8c.46-.23.7-.7,1.16-.93,1.17-1.4,2.57-1.63,4.2-2.09l-.24.23c.24,0,.24,0,.24.23v-.46a13.29,13.29,0,0,0,2.79-.94c2.57-1.63,5.59-1.39,8.62-1.86a12.49,12.49,0,0,1,3-.23,3.85,3.85,0,0,0,1.63,0c2.1-.93,4.43-.47,6.76-.24,3.26.47,6.05,2.1,9.32,2.57,1.63.23,3.26.7,5.12,1.16.23-.7.47-1.4.7-2.1a13.45,13.45,0,0,1,1.63-4.89,24.21,24.21,0,0,0,1.4-3.73,2.24,2.24,0,0,1,2.33-.69,2.85,2.85,0,0,1,1.86,1.39,6,6,0,0,1,.94,1.64c.93,0,1.86,0,2.09.93.7,1.63,2.33,2.79,1.87,4.66,0,.69,0,1.63-.47,1.86-.93,1.4-.93,2.79-1.17,4.19-.23,2.1-1.63,4-2.09,6.06-.94,2.56-2.1,5.13-3.26,7.92-.7,1.4-1.64,3-2.57,4.66a49.87,49.87,0,0,1-2.56,4.89c-.93,1.63-1.86,3-2.79,4.66-.7.93-1.17,1.87-1.87,2.8a5.66,5.66,0,0,1-2.8,2.33c-1.39.7-2.79,1.4-4.42.23-.23-.23-1.17,0-1.63-.46.46-1.17,1.16-2.33,1.63-3.5-.93-1.4-1.63-.47-2.1,0-.46-.7-.93-1.4-.46-2.1,1.16-.93.93-2.09,1.63-3.26A14.2,14.2,0,0,0,103.7,143v-.23c.7-1.63,2.09-2.56,2.33-4.43,0-1.63.93-3.26,1.63-4.66.23-.93.93-1.4,1.4-2.1a1,1,0,0,0,0-1.63,13.57,13.57,0,0,0-2.1,1.63c-.47-.23-1.17-.46-1.63-.69a5.73,5.73,0,0,0-4.19-1.4,25.12,25.12,0,0,0-9.32,1.16,29.85,29.85,0,0,0-10.25,5.83c-2.33.93-3,3.26-4.66,4.66-1.17.93-1.87,2.79-2.33,4.42a16.42,16.42,0,0,0-.7,4.89,3.24,3.24,0,0,0,.46,2.57c1.4,2.33,1.87,4.89,2.8,7.45,1.17,2.57,2.56,4.89,3.73,7.46a3.08,3.08,0,0,0,2.33,2.1c.7.23,1.16,1.39,1.86,2.09a12.89,12.89,0,0,0,2.56,2.33c2.33,1.17,2.1,1.17,2.1,4.19a22,22,0,0,1,2.33,1.17,10.6,10.6,0,0,1,3.73,3.49,2.51,2.51,0,0,0,1.86,1.87,3.89,3.89,0,0,1,2.33,4,18.81,18.81,0,0,1,2.1.93,5.11,5.11,0,0,1,1.16.7,4.64,4.64,0,0,0,2.1,2.1c.46.23.93.46.93.93.23,1.63,1.87,2.09,3,2.79,1.86,1.4,1.86,1.4,2.33,3.73,1.16-.23,2.33-.23,3,.93A7.39,7.39,0,0,0,117,203.6c.23.47.93.93.93,1.63.23.93.7,1.17,1.63,1.4,1.4.47,1.63,1.87,2.56,3-.23.47-.46.7-.46,1.16.93,2.1,3.26,2.8,4.66,4.2.7.7,1.39,1.16,1.63,2.09.23,1.17,1.39,1.64,2.09,2.57,1.17,1.63,1.17,1.63,1.17,4.19.23.23.7.47,1.16.93a4.92,4.92,0,0,1,.93,1.17,5.66,5.66,0,0,0,.94,2.79,20.67,20.67,0,0,1,1.63,4c0,.7-.47,1.4-.47,1.87-.46.93-.46,1.16,1.17,2.09.23,1.64-.47,3.5,1.16,4.9a41,41,0,0,1,1.17,5.12,2,2,0,0,1,0,1.63,13,13,0,0,0,.46,6.76A11.94,11.94,0,0,1,139.58,258.12Zm-117-11v-.24l-.24.24a.23.23,0,0,0,.24.23Zm7.45-9.09c0-.23-.47-.23-.7-.46a16.28,16.28,0,0,0-1.4,10,8,8,0,0,0,.93-2.09c.47-2.1.7-4.2,1.17-6.29Zm13.51,57.78c-.46-.47-.93-1.17-1.4-1.63-3.72-3.5-7.68-6.29-10.95-10.25,0-.24-.46-.24-.69-.47,0,.47,0,.7.23.93a32.82,32.82,0,0,0,11.88,11.42C42.89,296.09,43.36,295.86,43.59,295.86Zm.7.46c-.23,0-.23-.23-.47-.23a.8.8,0,0,1,.24.47Zm7.22-141.64a1.56,1.56,0,0,1,.94-1.63c0,.46.23.93.23,1.63a.51.51,0,0,1-.47.47C52,155.15,51.51,154.91,51.51,154.68Zm1.17,147.24c0-.24-.23-.47-.47-.94-.23.24-.46.24-.46.47a1.77,1.77,0,0,0,.23.93C52.21,302.15,52.45,302.15,52.68,301.92Zm.7-149.1c-.24,0-.7.23-.93.23a1.41,1.41,0,0,1,.23-.93,1.18,1.18,0,0,1,.7.23Zm4.19,151.43a2.47,2.47,0,0,0-2.56-.7C55.94,304.48,56.41,304.94,57.57,304.25Zm5.59-125.34c0-3-2.56-4.43-4.19-6.53a12,12,0,0,0,2.79,6.29C62,179.14,62.46,179.61,63.16,178.91ZM60.6,163.07h.23v-1.64H60.6ZM73,122.53h0Zm0-1.87-.24-.23a6.29,6.29,0,0,1,.24,2.1c0-.23,0-.47.23-.47C74.11,121.36,73.41,120.9,73,120.66Zm1.63,13.52A8.18,8.18,0,0,0,79,129.75c-1.86.23-3,1.4-4.19,2.56A1.41,1.41,0,0,0,74.58,134.18ZM84.83,299.35c-2.33.24-4.2.47-6.06.7C81.57,301,82,301,84.83,299.35Zm-3.26-168.9c4-1.4,8.15-2.56,12.11-3.73h.23a1.72,1.72,0,0,1,2.33-.7c3.73,0,7.46.24,11.18.47a4.32,4.32,0,0,0-3.26-3c-4-1.16-7.68-.23-11.41.7-.24.7-.24,1.17-.47,1.86a59.52,59.52,0,0,0-6.75,1.63c-1.4.24-2.33,1.17-3.5,1.64C81.57,129.52,81.1,129.75,81.57,130.45Zm.93-5.12a25.31,25.31,0,0,0,4.19,0c3-.7,5.82-1.64,8.62-2.57.23,0,.23-.23.47-.46-3-.47-8.16-.24-10.49.93a6.14,6.14,0,0,0-2.09,1.16C83,124.39,83,124.86,82.5,125.33ZM100,152.12a.84.84,0,0,1,.7-.24c0,.24-.23.47-.23.7h-.24C100,152.58,100,152.12,100,152.12Zm.7-.24v-.23h.23A.23.23,0,0,0,100.67,151.88Zm0-.23h0ZM107.89,294a1.75,1.75,0,0,1,.93-.47C108.36,293.53,107.89,293.3,107.89,294Zm2.8-2.1c-1.17.46-1.17.46-1.63,1.4C109.76,293.06,110.45,292.83,110.69,291.9Zm6.52-79.44c-1.86-1.64-3-4-5.36-5.6.24,1.87,1.63,2.33,2.33,3.5C114.65,211.52,116.05,212,117.21,212.46Zm-4.89,62.43v0Zm1.63-4h-.23V270h.69v.23C114.18,270.46,114.18,270.7,114,270.93Zm1.16-65.46a3,3,0,0,1,.7.93c.24-.24.47-.47.47-.7l-.7-.7C115.35,205.23,115.11,205.23,115.11,205.47Zm0,62v0Zm1.4-4.9a.23.23,0,0,1-.23.24v-.47h.23Zm.93-49.15c0-.47-.23-.7-.23-.93-.23.23-.23.46-.47.69a.84.84,0,0,0,.47.24ZM117,254.62h.23a.23.23,0,0,0-.23.24Zm0,.7v-.46c.23.23.23.23.23.46v.23A.23.23,0,0,1,117,255.32Zm5.12-38c.23-.47,0-.93-.7-.93C121.4,216.88,121.4,217.35,122.1,217.35Zm4.43,6.29a32.18,32.18,0,0,0-3.73-6.06h-.7c.7,2.33,2.33,4.19,3.5,6.29C125.83,224.34,126.3,224.1,126.53,223.64Zm7.69,25.62a12.65,12.65,0,0,0-1.4-5.82c0-.23-.47-.47-.93-.7v0c.23,2.56.7,5.13.93,7.46V253c.23.47.23.93,1.16.93C134,252.29,134.22,250.66,134.22,249.26Zm1.4,10.72c-.24,0-.47-.23-.7-.7-.24.47-.47.7-.7,1.17a.88.88,0,0,0,.23.7s.23.46.23.23c.24,0,.7-.23.7-.47C135.62,260.91,135.62,260.45,135.62,260Z" transform="translate(-20 -96.37)" style="fill:#fff"/><path d="M176.62,144.2c.69-1.4,1.16-2.57,1.86-3.73a4.31,4.31,0,0,1,1.86-2.56,2.38,2.38,0,0,0,.94-1.17c.23-.47.23-1.17.69-1.63a43.35,43.35,0,0,0,3.73-5.36c.93-2.1,2.56-4,3.73-5.82a40.31,40.31,0,0,1,6.76-8.62c1.39-1.4,2.79-3,4.19-4.43,1.63-1.63,3.49-3.26,5.36-4.89l1.63-1.63c1.16-.24,2.56.23,3.73-.47.23,0,.23-.23.46-.23.93,0,1.87,1.16,3,.7a19.84,19.84,0,0,1,3.26-.7c.23,0,.47.23.7.23a4.49,4.49,0,0,1-1.86.7,7.65,7.65,0,0,0,7.69,5.13c-.94-1.87-2.57-2.33-4.2-3,0-.47.23-.94.23-1.4,5.6,1.63,7.46,8.39,6.76,13a54.36,54.36,0,0,1-6.06,17.93c-1.63,3.27-3.49,6.53-5.36,9.56a12,12,0,0,0-.93,2.56,6.9,6.9,0,0,0,2.1.46c1.63-.69,3.49-.46,5.12-.69a56.19,56.19,0,0,1,6.3-.7,11.9,11.9,0,0,0,3-.24c2.33-.93-2.56-.23,2.8-.7,1.86-.23,3.49-.69,4.66-2.32a3.62,3.62,0,0,1,1.4-.7,21.46,21.46,0,0,1-1.17,2.09h1.87c4.42-.7,8.85-1.39,13.28-1.86a15.83,15.83,0,0,1,3.26-.47c1.86,0,2.56.94,3.26,2.8.7,1.4,1.63,2.79.46,4.66a3.19,3.19,0,0,0-1.39-.47c-1.17.7,0,1.63,0,2.33a.51.51,0,0,1-.47.47,1.74,1.74,0,0,0-1.16.23c-.94.47-1.4,1.4-2.57.47-.23-.24-.93.23-1.16.23-.47.23-1.17.47-1.17.23-.93-.93-1.86-.46-2.79-.46-14.91,2.09-19.81,3-21.67,3.72-.23,0-.7.24-.93,0-1.86-1.39-4-.69-5.83-.46-3.49.23-7,.93-10.48,1.4-.7,0-1.16.23-1.63.23-1.63,2.56-3,4.89-4.66,7.22-1.86,3.26-4,6.29-5.12,10-.24.46-.7.93-.94,1.4-2.09,4.19-4.65,8.15-6.52,12.58A116.64,116.64,0,0,0,188,202.44c-2.1,6.29-4,12.81-5.82,19.33-.47,1.87-1.4,3.73-.93,5.83,0,0,0,.46-.24.46-.46.7-.46,1.17.24,2.1.46.47.23,1.63.23,2.56v2.8a12.5,12.5,0,0,0-1.4,1.86c0,.24,0,.47.23.47A2.55,2.55,0,0,1,182,240c.47,2.33.7,4.89-.23,7a9,9,0,0,0-.23,3.5c0,.46.7.93,1.4,1.63.93,1.86,0,4.19.7,6.29.23.47-.24,1.4-.47,1.86-.7,1.63-.7,1.63.47,2.8a3.24,3.24,0,0,1,.69.93,16.73,16.73,0,0,1-.93,2.56c.7.47,1.17.94,1.63,1.17a8.84,8.84,0,0,0-.23,2.33c1.16.7.23,2.56,2.1,3.26-.24.7-.47,1.4-.7,2.1l.7.7c.23.23.93.46.7.93-.47.93,0,1.63.46,2.56,1.63,1.86,2.8,4.43,5.36,5.82.46.24.93,1.17,1.4,1.87a2.54,2.54,0,0,1,1.16.23c3,.23,5.13-1.16,7.22-2.79,3.73-3,5.83-7.23,7.46-11.65,1.86-4.66,4.66-9.32,6.06-14,.7-1.86,1.16-3.73,1.86-5.36,1.63-4,14.21-39.84,14.91-41.23s1.4-3,2.1-3.27a5.49,5.49,0,0,1,2.56-.23s2.56-.46,1.4,4.66c-1.17,4.89-15.61,46.59-17,52.65-.93,4.66-3.49,9.09-5.12,13.75a40.24,40.24,0,0,1-5.83,10.71,41.88,41.88,0,0,1-8.62,8.39,19.93,19.93,0,0,1-7.45,3.49c-4.66,1.4-9.09.7-12.82-3-2.33-1.87-4.19-4.2-7-5.59-.23-.24-.46-.24-1.16-.24,1.4,3,4.42,4.43,6.52,6.52-.46,1.17-.93,1.17-1.4.94-2.09-1.4-4.19-2.57-6-4a26.69,26.69,0,0,0-3.26-2.1,3.69,3.69,0,0,1-2.1-1.63c-.93-1.4-2.56-2.56-2.8-4.43,0-.23-.46-.46-.7-.7-.93-1.16-2.33-2.33-2.33-4.19a2.93,2.93,0,0,0-.93-1.63c-2.09-3.73-3-7.92-4-11.88-.23-1.4,0-2.8-.93-4,.23-.47.7-.93.7-1.4-1.63-2.1-1.63-2.56-.23-4.19-1.87-2.8-2.1-6.06-1.87-9.32,0-1.4-.46-2.57-.46-3.73-.24-1.4,0-2.56-.47-4a7.78,7.78,0,0,1,0-5.13,1.4,1.4,0,0,0,.23-.93c-1.16-2.33-.69-4.89-.69-7.22.23-4.89.46-9.55.69-14.21.24-1.17.47-2.33.7-3.73a6.83,6.83,0,0,1,.47-3c.46-1.16-.23-2.09,0-3,.23-.23,0-.93.23-1.16,1.4-1.86.47-4.19.93-6.06.24-.93.24-1.86.47-2.56a12.8,12.8,0,0,0,.93-5.83,4.55,4.55,0,0,1,1.63-3.49,8.59,8.59,0,0,1,.7-6.29c.47-.47.47-1.16.47-2.1a4.66,4.66,0,0,1,.46-2.56c1.87-2.33,1.17-5.82,3.5-8.15a.85.85,0,0,0,.23-.47v-2.8h-1.4c-4.89.7-4,.24-9.78,1.17a4.67,4.67,0,0,0-2.57.7c-1.63.93-.46.23-2.33.23a25.49,25.49,0,0,0-4.19,0h-.7a11.49,11.49,0,0,0-5.59,0l-5.59.7A6.55,6.55,0,0,1,131,168c-.93-.23-1.39-.93-.7-1.87s0-1.39,0-2.09a8,8,0,0,1,2.1-.93c.23-.24.93-.47.93-.94.7-1.63,2.1-1.86,3.5-2.09,4.19-.93,8.62-1.63,12.81-2.57,1.63-.23,2.8-.93,6.06-1.63,4.66-.69-1.17,0,3.49-.69s1.87-.24,6.53-.94c1.39-.23,3-.7,4.42-.93,1.17-2.1,2.1-4.19,3.26-6.29a2.57,2.57,0,0,1,1.17.23c.23-.7.7-1.63.93-2.33C176.38,145.13,176.62,144.43,176.62,144.2Zm-7,123.94a3.41,3.41,0,0,0-.24-1.64,93,93,0,0,1-3.26-13.27l-1.4-10.49a11.17,11.17,0,0,0-.23,4c.47,4.43.7,9.09,1.4,13.51a27.76,27.76,0,0,0,3,9.09C169.16,268.6,169.63,268.37,169.63,268.14ZM165,198.48v-.93h-.47v.93Zm6.29-33.09v0a.8.8,0,0,0-.47.24c0,.93-.23,1.86-.23,2.79-1.17.94-.93,1.87-.23,3-.47.24-1.17.24-1.17.47a5.37,5.37,0,0,0-.7,2.56c-.46,1.86-.93,4-1.4,5.83-1.16,4.89-1.63,9.55-2.33,14.44v.93c.94,0,.94-.7.94-1.16a31.77,31.77,0,0,1,1.16-6.53c.7-4.42,1.4-9.08,2.33-13.51.23-.93.7-2.1.93-3s.24-2.09.47-3a3.93,3.93,0,0,0,.23-2.79A.73.73,0,0,0,171.26,165.39ZM169.39,273Zm4,12.81c-.23-1.63-.23-1.63-1.63-1.63-.23-1.16-1.16-2.56.47-3.49.23-.47,0-1.17-.93-1.4-.47.7-.93,1.16-1.4,1.86.7,1.17.47,2.56,1.86,3C171.72,285.14,172.42,285.61,173.35,285.84ZM172.66,151a.84.84,0,0,0,.69.23.79.79,0,0,0,.24-.46c0-.24-.24-.47-.47-1.17A2.81,2.81,0,0,0,172.66,151Zm.93-5.59a13.49,13.49,0,0,0,.93-1.63c.46.47.23,1.4.93,1.16A9.75,9.75,0,0,1,173.59,145.36Zm2.09-3.26c-.23.23-.23.23-.23.46a.23.23,0,0,1-.23-.23.71.71,0,0,1,.23-.46Zm10.72,23.76a1.41,1.41,0,0,1-.23.93,33.42,33.42,0,0,0-.93,6.76c0,1.86-.7,3.49-1.17,5.36a2.38,2.38,0,0,1-1.4,1.16.45.45,0,0,0-.23.7,26.72,26.72,0,0,0,.93,3.5c.47-.94.93-1.4,1.17-1.87a50.84,50.84,0,0,1,5.12-10c1.63-2.56,3-5.35,4.66-7.92a7.81,7.81,0,0,0,1.63-3.72A29.55,29.55,0,0,0,188,161.9,6.54,6.54,0,0,1,186.4,165.86Zm3,122.08c-.23,0-.47.23-.7.23.7.93,1.4,1.63,3.49,1.4A24.05,24.05,0,0,1,189.43,287.94Zm3.73-137a1.76,1.76,0,0,0,.93.47c2.33-.24,4.43-.47,6.75-.7a3.62,3.62,0,0,0,2.57-1.87,25.39,25.39,0,0,1,2.79-5.59c.93-1.63,1.4-3.26,2.33-4.89a38.58,38.58,0,0,1,2.1-4.43c.7-1.63,0-3.72,1.63-4.89v-.23c-.47-.93.23-1.4.7-1.86a6.31,6.31,0,0,0,.7-3.5c0-.93.23-2.1.23-3a11.44,11.44,0,0,1,.23-2.79c-1.39-.7-2.56-1.17-3.72-.47a23.27,23.27,0,0,0-6.76,5.83c-1.63,2.33-3.49,4.42-4.19,7.22-.47,1.39-1.87,2.79-2.1,4.42-2.1,3.27-2.79,7.23-4.66,10.72a19.93,19.93,0,0,0-1.4,4.43A8.28,8.28,0,0,0,193.16,151Zm.93,3.5c-.24-.24-.47-.47-.7-.47a.85.85,0,0,0-.47.23c0,.24.24.24.47.47C193.62,154.68,193.85,154.45,194.09,154.45Zm4,141.41h-.47c.24.23.24.23.47.23h.23A.23.23,0,0,1,198.05,295.86Zm.7-143.28h-.23c0,.24.23.47.69,1.4C199,153.05,199,152.82,198.75,152.58Zm7.69-49.15c.23-.7.93-1.17,1.39-1.64.7.7,0,.94-.23,1.4a2.14,2.14,0,0,0-.23,1.17C206.44,104.59,206,104.12,206.44,103.43Zm16.3,13.74c0-.47-.46-.7-.93-.7-1.16,2.33,0,4.43-.23,6.76A10.87,10.87,0,0,0,222.74,117.17Zm31.92,31c.23.23.47.46.47.69a3.29,3.29,0,0,0,.7-.93.73.73,0,0,1-.47-.23C255.13,147.92,254.89,148.16,254.66,148.16Z" transform="translate(-20 -96.37)" style="fill:#fff"/><path d="M223.21,257.19c-2.33-4.2-4.19-8.86-3.73-13.75a41.29,41.29,0,0,1,3-12.81c1.86-4.66,4.66-8.62,7-12.82.47-.7,1.16-1.63,1.63-2.33a44.59,44.59,0,0,1,8.62-10,16.62,16.62,0,0,1,7.92-3.73c2.1-.23,4-.7,6.06-.93,2.79-.47,5.59-.47,7.92,1.86l.7.7c1.86,1.16,3.49,2.1,5.36,3.26a30.66,30.66,0,0,0,3.49-4.19c1.86-2.8,4.19-5.36,6.29-7.92,3-3.5,7.22-4.66,11.88-4.2a6.93,6.93,0,0,1,3.5,1.63,41.86,41.86,0,0,1,4.89,4c.47,2.33,1.4,4.9,1.4,7.46a29.05,29.05,0,0,1-.7,7.69c-.47,2.09-1.17,4.42-1.63,6.52-1.4,7-4,13.28-4.9,20.27-.69,6.29-1.63,12.35-.69,18.64.46,2.33,1.16,4.66,1.86,7.22a3.52,3.52,0,0,0,.93,2.1,3.81,3.81,0,0,0,6.29,0,11.12,11.12,0,0,0,1.4-2.1c4.89-5.83,8.15-12.82,11.88-19.34,1.4-2.56,3-4.89,4.19-7.22,1.17-2.1,2.1-4.19,3.27-6.29,3.26-6.06,6.29-12.11,9.78-17.94a42.44,42.44,0,0,1,2.8-4.19,54.34,54.34,0,0,1,3.73-4,8.81,8.81,0,0,1,2.32.23c0,.47.24.93,0,1.4-1.39,4.19-3,8.39-4.66,12.35a26.64,26.64,0,0,1-2.79,5.82c-3.5,6.76-7.22,13.28-10.95,19.8-1.17,1.87-2.33,3.26-3.26,4.89a29.91,29.91,0,0,0-4,7c-.93,1.87-2.1,3.27-3.26,5.13-1.64,2.56-3.27,5.36-5.13,7.92a8.23,8.23,0,0,1-1.16,1.86A11,11,0,0,1,295,277a39.8,39.8,0,0,1-10.48-.7,12.82,12.82,0,0,1-5.36-3.26c-4.42-4.43-6.52-9.79-8.15-15.61-2.1-6.29-1.17-12.35-.47-18.64a107.18,107.18,0,0,1,2.1-11.88c.46-2.33,1.4-4.89,1.86-7.22.7-2.1.93-4,1.63-6.53a8.85,8.85,0,0,0-1.39,1.17c-1.64,2.79-3.27,5.59-5.13,8.15l-6.29,9.79c-3.26,4.89-6.52,9.78-9.55,14.91-.23.23-.7.46-.7.93-.23,3-2.33,5.13-4.19,7.45-.94,1.17-1.87,2.57-2.8,4-1.16,1.86-3,2.79-4.89,4-1.4.93-3,.46-4.66.23-2.1-.47-4.2-1.17-6.52-1.63-.47-.24-.7-.47-.47-1.17v-.23c-.7-.7-1.4-1.63-2.56-1.4-.7-1.16-.7-1.16-1.63,0C224.61,258.58,223.67,258.12,223.21,257.19Zm11.18-2.1c0,.93.7,1.16,2.1.93-1.63-5.59-.23-10.95.46-16.54A32.66,32.66,0,0,0,234.39,255.09Zm7.92-4.2c.24-.46.47-.69.47-.93,2.56-4,4.89-7.92,7.45-11.88,1.17-1.63,2.1-3.49,3.27-5.12,1.16-1.87,2.33-3.5,3.49-5.36.93-1.63,2.1-3.5,3.26-5.13,1.63-2.79,3.5-5.36,4.89-8.15.94-2.1.47-3.5-.7-5.13a7.79,7.79,0,0,0-4.42-2.56c-.23.47-.7.7-.93,1.17-1.4,1.86-2.57,3.72-4,5.82a10.48,10.48,0,0,0-1.87,2.56c-2.33,4.66-4.19,9.32-6.75,13.75-.24.46-.24.93-.47,1.4a60.33,60.33,0,0,1-2.1,6,41.84,41.84,0,0,0-2.33,13.05C241.85,250.66,242.08,250.66,242.31,250.89Zm7-40.76c0-.24,0-.24-.23-.24-.23.24-.23.47-.47.7a.73.73,0,0,1,.47.23A.84.84,0,0,0,249.3,210.13Zm1.87-1.87a.84.84,0,0,0-.24.47.81.81,0,0,1,.47.23.86.86,0,0,0,.23-.7Z" transform="translate(-20 -96.37)" style="fill:#fff"/><path d="M417.74,239a16.6,16.6,0,0,1-2.33,1.87c1.16,2.79.23,5.36-.7,7.69-.23.46-.46.69-.46,1.16a1.75,1.75,0,0,1-.24,1.86c-.23.94-.7,1.4-.23,2.57.23.46-.23,1.16-.47,1.86a27.22,27.22,0,0,0-2.09,7.46,48.78,48.78,0,0,1-1.17,5.59c-.23.7-1.16,1.39-1.4,2.33a9.5,9.5,0,0,0,0,2.56,12,12,0,0,1-2.09,4.66c0,.23-.24.47-.24.7.47,1.63-.7,3-1.16,4.66a25.66,25.66,0,0,1-2.33,5.82c-.7,1.4-1.4,2.56-2.1,3.73-.93,1.63-1.39,3.26-3.49,4-.23,0-.47.47-.47.7-.93,2.56-3.26,4.19-5.12,6.06a17.65,17.65,0,0,1-3,2.56c-1.63,1.4-4,1.4-6.06,1.63A9.61,9.61,0,0,1,380,308c-1.87-1.16-3.73-2.56-5.59-3.72a6.44,6.44,0,0,1-1.87-4.2,27.09,27.09,0,0,1,1.87-16.54,34.79,34.79,0,0,1,3.72-6.29c2.34-3.73,4.9-7.69,7.46-11.41a4.16,4.16,0,0,0,.47-1.17c-.24-1.63.69-2.56,1.63-3.73a43.61,43.61,0,0,0,3.72-5.36,7.49,7.49,0,0,1,1.63-2.09c1.64-.93,1.87-2.57,2.1-4.2s0-3,.24-4.65c0-.94,0-1.87.69-2.33a.77.77,0,0,0,0-1.17,3.29,3.29,0,0,1-.46-.93c1.4-1.17.23-2.56.23-3.73,0-2.56-.93-5.12,0-7.69a16.35,16.35,0,0,1-.7-4.66c0-.69-.23-1.39,0-1.86a5.87,5.87,0,0,0-.93-4,3.08,3.08,0,0,1-.7-2.56c.23-.24.23-.7,0-.7-1.63-1.17-1.86-3.26-3.26-4.66-2.1-1.86-4.19-2.33-6.29-.47-.7.7-1.17,1.4-1.86,2.1s-1.17,1.4-2.1,1.4-1.63,1.16-2.33,1.63a13.94,13.94,0,0,0,.7,1.86c-.93,1.17-2.57.93-3.26,2.1s-2.33,1.86-1.63,3.73a2,2,0,0,1-.7,1.39,9.8,9.8,0,0,1-.94,1.63c-.23,1.64-2.32,2.33-1.63,4.2-.69,1.4-1.16,3-1.86,4.19a42.22,42.22,0,0,0-3.73,10.25c-1.4,4.43-2.56,9.09-3.73,13.51-.93,3.5-2.09,6.76-2.32,10.49a44.47,44.47,0,0,0-.7,5.59c0,1.63-.24,3.26,1.16,4.66a5.17,5.17,0,0,1-1.86.23,8.33,8.33,0,0,0,.46,5.83c.24.93.47,1.86.7,2.56.47,2.1,0,3-1.63,4a2.57,2.57,0,0,1-1.4.7c-1.63,0-1.86-1.63-3.26-1.4v-1.16h-.23a2.09,2.09,0,0,1,.23,1.16c0,.93-.23,1.86-.23,2.8l-2.8.7a5.63,5.63,0,0,1-.93-3.5c-.93-.7-1.86-1.4-3.26-.7a3.94,3.94,0,0,1-2.33,0,5.66,5.66,0,0,1-1.63-.93c-2.1-3.26-4.66-6.29-5.13-10.25a7.37,7.37,0,0,0-1.16-2.33c-1.4-1.4-1.4-3.5-2.33-5.13a1.79,1.79,0,0,1-.47-1.16c.47-2.33-.46-4.19-1.16-6.06a3.48,3.48,0,0,1-.23-1.63c0-.23.23-.47,0-.47-1.4-1.16-.7-2.79-1.17-4s-.23-2.79-1.4-3.72c-.23,0-.23-.47-.23-.47,0-2.8-.93-5.12-1.63-7.69-.23-.93.47-1.86-.47-2.79-.46-.7-.23-1.63-.23-2.57-.23-.93,0-1.86-.23-2.79-.47-1.63-.93-3-.47-4.43.24-.93.47-.93,1.87-.46,0,2.09.23,4.19.46,6.75a4.86,4.86,0,0,0,1.17-.7.43.43,0,0,0,0-.69c-.24-1.64-.94-3.27-.7-5.13.23-.7-.24-1.17-.93-1.63-2.57-.93-2.57-1.17-1.4-4l1.16,2.33a1.86,1.86,0,0,0,.24-2.56,10.54,10.54,0,0,1-1.63-1.64,2.38,2.38,0,0,1-.47-1.16c.7-1.4,0-2.8.7-4.19.23-1.17-.23-2.8-.23-4a29,29,0,0,0,.46-4.43c0-.23.23-.47.23-.7-.23-.93.7-1.16,1.17-1.63-1.17-1.63-1.17-1.63-1.17-3.5.24-2.09.47-4,.7-5.59a1.49,1.49,0,0,1,1.63-1.16c0-.23,0-.47-.23-.47h.23v.47a1.43,1.43,0,0,1-.7-2.1c1.17-2.09.7-4.66,1.17-7,.47-1.86.23-4,1.16-6-.46-1.87.24-3.73.7-5.36.7-2.8,1.17-5.36,1.63-8.16.47-2.33,1.17-4.42,1.63-6.75.24-1.17,1.87-1.4,1.4-2.8-.46-1.16.23-1.86.47-2.79.7-1.17.46-2.57.93-4l2.1-4.9c.46-1.63,1.4-3.49,1.86-5.12a8.69,8.69,0,0,1,2.8-4.66,8.48,8.48,0,0,1,2.56-7c1.16-.93.93-2.33,1.16-3.73a6,6,0,0,0,2.8-4.19c2.56-4.2,4.19-8.62,7.69-12.12,1.4-1.86,3-3.49,4.42-5.35.94-.94,2.33-1.64,3.26-2.57a17.18,17.18,0,0,1,3.5-2.56A4.14,4.14,0,0,0,370,101.1c1.86-1.87,4.19-3,6.76-2.33.46.23.7,0,1.16,0A1.47,1.47,0,0,1,380,99a14.53,14.53,0,0,0,4.89,3.49,3.42,3.42,0,0,1,1.4,1.17c.7,1.86,2.1,3.26,1.86,5.36-.23.93.47,1.86.47,2.79.7,4-.23,7.92-.93,11.65-.94,6.06-3.26,11.88-5.13,17.47-2.33,6.29-5.36,12.35-7.92,18.41s-5.12,12.11-7.92,18.17c-2.1,4.19-4.19,8.39-6.52,12.35a45.84,45.84,0,0,1-9.32,10.95c-.47,5.12-1.17,10.48-1.4,15.84a57.5,57.5,0,0,0-.23,6.29,57.38,57.38,0,0,1,0,6.29,23,23,0,0,0,.46,5.59,3.5,3.5,0,0,1,.23,1.63c0,1.4-.69,3,.47,4.43a10.22,10.22,0,0,0-.23,1.16,25.57,25.57,0,0,0,.7,4.2,10.85,10.85,0,0,1,.93,4,1.3,1.3,0,0,0,1.63-.7,7.52,7.52,0,0,0,.7-2.1c0-2.79.93-5.12,1.63-7.45a112.89,112.89,0,0,1,8.15-18.88,56.45,56.45,0,0,1,8.86-13.51c1.63-1.86,3.49-3.49,5.12-5.12a4.42,4.42,0,0,1,2.57-1.63c.69-.24,1.39-.93,2.32-1.4a13.27,13.27,0,0,1,3.73-2.56c2.8-.7,5.36-2.1,8.39-.7,4.89.23,7.45,3.49,10.48,6.75,1.87,2.33,3,5.13,4.43,7.92.23.47,0,.94.23,1.64a1.38,1.38,0,0,0,.24.93c1.86.46,2.09,1.86,2.32,3.49,1.4,1.87,1.4,4,1.64,6.06a1.82,1.82,0,0,1-.24,1.86v.7c.24.93,1.63.93,1.17,2.33a4.55,4.55,0,0,0,.46,2.56c0,.24,0,.24.24.47a4.49,4.49,0,0,0,2.33-1.16c7-5.13,14-10.26,20.73-15.38,2.56-1.86,5.13-3.5,7.69-5.36a3.06,3.06,0,0,1,2.79-.7,1.65,1.65,0,0,1,.93,2.8c-.46.7-1.39,1.16-2.09,1.86-6.06,4.43-12.35,8.85-18.64,13.51-2.79,2.1-5.59,4.2-8.15,6.29-.47.47-1.17.7-1.17,1.17-.46,1.63-1.63,2.33-2.79,3.49.46.24.93.24,1.16.47A4.89,4.89,0,0,1,417.74,239Zm-91.32-14a.5.5,0,0,0-.47.46l.47.47c0-.24.23-.47.46-.7A.8.8,0,0,1,326.42,225Zm-.24-10.49a.8.8,0,0,0,.24.47h.23c0-.23-.23-.47-.23-.7Zm.47,5.13h-.47a.23.23,0,0,0,.24.23A.23.23,0,0,0,326.65,219.68Zm-.47,3c0,.23.24.23.47.46,0-.46.23-.7.23-1.16.23,0-.23-.24-.7-.24Zm2.57,22.59c-.24-.93-.47-1.86-.7-2.79-.24-.7-.94-.93-1.63-.23.46,1.16.93,2.33,1.63,4.42A3.67,3.67,0,0,0,328.75,245.3Zm-1.4-38-.47-.23a.71.71,0,0,0-.23.46c0,.24.23.24.46.24A.84.84,0,0,0,327.35,207.33Zm15.37-33.08c.24-1.4.94-2.33.94-3.5.23-1.39,1.16-2.56,1.16-3.72,0-1.4.93-2.1,1.4-3.27-1.17-.46-1.87-.46-2.1.47a11.1,11.1,0,0,0-.7,2.56,52.78,52.78,0,0,0-2.33,10,7.16,7.16,0,0,0,.7,2.56c-.46-1.39-.46-1.86-.7-2.56A2.52,2.52,0,0,0,342.72,174.25Zm0,103.9c-.23,0-.46.24-.93.24.23.7.23,1.86,1.4,1.86C343.89,279.32,343.19,278.85,342.72,278.15Zm2.1,6.53c0,.23.23.46.23.69a.81.81,0,0,0,.47-.23,1.79,1.79,0,0,0-.23-.93C345.05,284.44,344.82,284.44,344.82,284.68Zm3-125.34c-.23-.93-.47-1.63-1.4-1.4a3,3,0,0,0-.23,2.8.73.73,0,0,0-.47.23v.23c.23-.23.47-.46.47-.7C346.92,160,347.38,159.57,347.85,159.34Zm.7-2.56a.86.86,0,0,0-.7.23.23.23,0,0,1,.23.23.73.73,0,0,1,.47-.23Zm-.47,64.76h-.23v.23Zm.7-67.56a13.18,13.18,0,0,0,1.87-1.4c.23-.46.46-.93,0-1.4-.71-.46-1.17-.23-1.4.24a14.74,14.74,0,0,0-.94,1.86C348.55,153.51,348.78,153.75,348.78,154Zm1.4,94.59c0-.24-.24-.47-.47-.7l-.23.23v.47c0,.23.23.46.46.69A.82.82,0,0,0,350.18,248.57Zm.47,6.52a.82.82,0,0,0-.71,1.16c0,.24.24.7.47.7a.82.82,0,0,0,1.17-.7c.23-.93.7-.7,1.63-.7.7.24.93-.46.7-1.39A16.44,16.44,0,0,0,350.65,255.09Zm1.16,6.52c.93-1.4,0-1.86-1.16-2.09A9.32,9.32,0,0,0,351.81,261.61Zm.47,31.69h0Zm.46-147.94a1.72,1.72,0,0,1,.47-.93,2.3,2.3,0,0,1-.7-.23c0,.46-.23.69-.23,1.16Zm1.4,46.59a7.77,7.77,0,0,0,.7-1.86c-1.63,1.63-2.33,2.8-2.56,4.43A10.58,10.58,0,0,0,354.14,192Zm.23-10.25c1.63-2.09,3.26-4,4.66-6a69.27,69.27,0,0,0,4.66-9.32c1.87-4.66,4.19-9.09,5.59-13.75.7-1.86,1.4-3.49,2.1-5.36l2.79-8.38c.94-2.57,1.17-5.13,1.87-7.69a79.05,79.05,0,0,0,.93-10.49c.23-1.86,0-2.09-1.17-4-.93,1.4-2.09,2.57-2.56,4-.7,1.4-2.56,2.34-2.56,4.2,0,.23-.47.7-.7.93a5.77,5.77,0,0,0-1.4,1.86c-.46.94-.46,1.87-.93,2.8-.23,1.16-1.4,2.33-2.33,3.49a2.29,2.29,0,0,0-.47,1.87c.24,1.16-1.39,2.1-.69,3.49-.47.7-1.17,1.4-1.63,2.1a3.19,3.19,0,0,1-.7,4c-.47.47-.7,1.16-.47,1.4a5.06,5.06,0,0,1,0,1.86,7.21,7.21,0,0,0-.7,2.1,3,3,0,0,0-1.4.23c.24.47.47.93.7,1.4-2.09,1.86-.46,4.89-2.33,6.76-.23.23,0,.93,0,1.39v.24a3.52,3.52,0,0,1-.23,1.63,9.65,9.65,0,0,0-.93,3.49,64.16,64.16,0,0,0-1.63,7.22c-.47,1.87-.93,3.73-1.4,5.59-.23,1.17-.23,2.33-.47,4A12.65,12.65,0,0,0,354.37,181.7Zm.24-41.46v0ZM356,188.93v0Zm10.72,31.91c.93-.23.93-.46.7-1.63.23,0,.46.23.7.23,0-.23,0-.23-.24-.23a.71.71,0,0,0-.46.23,3.42,3.42,0,0,0-.47,1.4c-.23.47-.46.93-.7,1.4a1.45,1.45,0,0,0-.46,1.63c-.23.23-.7.23-.7.47a72.3,72.3,0,0,0-5.59,13.28,6.57,6.57,0,0,0-.47,2.09c-.23.24-.46.47-.23.24v-.24c.93-.46.7-1.39.7-2.09.7.23.93-.24,1.16-.7,1.63-4,3.26-8.16,4.9-12.12a1.41,1.41,0,0,0,.23-.93c.7-.46.7-.93.46-1.63C367,222,367.19,221.77,366.72,220.84ZM360,127.65v.47c0-.23,0-.23.24-.23C360,127.89,360,127.89,360,127.65Zm1.87-4,.23.24v-.24Zm7.69,92.73v-.24a.23.23,0,0,1,.23-.23h-.23Zm4.42-66.63c.23-.47.47-.7.47-.94a84.75,84.75,0,0,0,6.06-21.2c.23-2.32.46-4.89.46-7.22a1.49,1.49,0,0,0,0-1.4c-.93-1.16-.46-2.79-.7-4.19-.23-.23,0-.7-.23-1.16-.24-.24-.47-.47-.7-.47s-.47.47-.7.7v.7c1.16,4.66.7,9.55,0,14.21a80.24,80.24,0,0,1-4,16.77,25,25,0,0,0-1.16,4C373.71,149.55,373.71,149.55,373.94,149.79ZM382.56,297c2.33-1.86,3.5-4.42,4.89-6.75,1.17-1.87,1.63-4.2,2.33-6.53.7-2.79,1.63-5.82,2.33-8.62a45,45,0,0,0,.93-5.59c0-.7-.23-1.39.24-2.09a.45.45,0,0,0-.24-.7c-.23-.24-.69,0-.93.23a65.18,65.18,0,0,1-5.82,9.55c-1.4,2.33-2.56,4.66-3.73,7-1.86,3.73-2.09,7.46-2.56,11.42a2.71,2.71,0,0,0,.93,3.26C381.4,297.72,382.1,297.49,382.56,297Zm-.7-86.43c-.23,0-.46.23-.7.47a.7.7,0,0,0,.24.46c.23,0,.46-.23.7-.23C382.1,210.82,381.86,210.82,381.86,210.59Zm4.66-6.29c-.7-.23-1.16,0-1.16.7-.24,0,.23.47.23.47l1.4-.7v-.24C386.75,204.3,386.75,204.3,386.52,204.3Zm4.43-.23c.23.23.93,0,1.63,0a4.11,4.11,0,0,0-3.5-1.87A14.33,14.33,0,0,0,391,204.07Zm1.4,1.63a15.3,15.3,0,0,0,2.33,1.86C394,205.23,394,205.23,392.35,205.7Zm16.07,51.72a49.06,49.06,0,0,0,.93-5.83,9.69,9.69,0,0,0-.46-1.63c-.47,2.33-.93,4.2-1.4,5.83,0,.93.23,1.86.23,2.79-1.16,2.1-1.4,2.8-.7,5.6.24-2.1,1.63-3.73.7-5.83C408,258.12,408.42,257.88,408.42,257.42Z" transform="translate(-20 -96.37)" style="fill:#fff"/><path d="M432.65,235.75v-.46a10.62,10.62,0,0,0,.46-4.66c0-.47-.23-.93.94-1.17-.24,2.1-.24,4.43-.47,6.76C433.35,236,432.88,236,432.65,235.75Zm.93,4c-.23-.23-.47-.23-.47-.46a.8.8,0,0,1,.24-.47c.23,0,.23.23.46.23C433.81,239.25,433.58,239.48,433.58,239.71Zm15.61-45a2.19,2.19,0,0,1,2.8,2.1v2.33a2.53,2.53,0,0,1,1.39.23c0,1.86-.23,3.49-.23,5.36a45.45,45.45,0,0,0-.23,5.59c.23,2.79-.24,5.59,0,8.39.23,2.56-.7,5.35,0,8.15-.7,1.16.46,2.8-.24,4a1.54,1.54,0,0,0,.24,1.4c0,.46.46.93.23,1.16-.7,1.87.47,3.5.23,5.36a2.24,2.24,0,0,0,.47,2.1,2.09,2.09,0,0,1,0,2.56v.23c.93,2.1.47,4.43,1.63,6.53a1.92,1.92,0,0,1,.7,1.86c-.47,1.4.7,2.1.93,3.26a5.15,5.15,0,0,0,1.63,2.1,14.61,14.61,0,0,1,2.1,1.86,6.09,6.09,0,0,0,3.49,1.63,20.91,20.91,0,0,0,4.9-6.29c1.86-3.26,3.49-6.29,5.35-9.32,0-.23.24-.46.24-.69.69-3.27,2.56-5.83,4-8.63a43.89,43.89,0,0,0,1.86-5.12c.93-3.26,2.1-6.52,2.33-10,0-1.16.93-1.63,1.17-2.33.46-1.16,1.63-1.16,2.79-1.4a34.06,34.06,0,0,1,1.86,3c.94,1.4.7,1.4-.46,2.8a5.11,5.11,0,0,0-.93,1.16c-.7,3.5-1.17,7-1.87,10.49v1.86a2.62,2.62,0,0,1-.23,1.87,10.32,10.32,0,0,0-1.4,3.72,81.41,81.41,0,0,1-3.49,9.79c-.93,1.86-2.33,3.72-3.5,5.59a30.21,30.21,0,0,0-4.42,8.62,5,5,0,0,1-2.1,2.79,31.34,31.34,0,0,1-8.85,3.27.73.73,0,0,1-.94,0c-3.72-.47-7.22-.94-10.71-2.8a14.34,14.34,0,0,1-5.83-4.19,77.82,77.82,0,0,1-6.29-8.16c-1.63-2.79-3-5.82-3-9.32a34.91,34.91,0,0,0-1.17-4.66c0-.23,0-.93.23-1.16,1.17-1.17.7-2.8.94-4.19.23-4.2.93-8.16,1.39-12.35.24-1.86.47-3.73.7-5.36.7-4.66,1.17-9.09,3.5-13.28a18.26,18.26,0,0,0,.7-1.86c.93-2.1,1.63-4.66,3.26-6.53a8,8,0,0,0,1.39-2.09Zm-14.91,31a4.2,4.2,0,0,1,.47-2.56A2.23,2.23,0,0,1,434.28,225.73Zm14.44-40.3c-1.86,1.63-3.72,1.63-6.05.7-3.26-1.4-5.13-7.22-1.87-10.25a3.65,3.65,0,0,0,1.4-1.86c1.4-2.33,1.63-2.33,4-1.87a6.43,6.43,0,0,0,2.1,0,8.43,8.43,0,0,1,6.29.7c.46.23.7.7,1.16.93.93,1.17.7,2.8.93,4.2a3.42,3.42,0,0,1-.93,2.79c-.23,0-.46.47-.46.7a4.39,4.39,0,0,1-4.43,2.56,2.45,2.45,0,0,0-1.16.24A5.12,5.12,0,0,0,448.72,185.43Zm-4-11.88v0Zm7,73.38c-.46-2.32-.93-4.89-1.4-7.45-.69-4-.46-7.92-.46-11.88,0-.7.23-1.4-.47-1.63a55.82,55.82,0,0,0,.47,19.57c.46,2.33.93,4.66,2.79,6.75A45.19,45.19,0,0,1,451.75,246.93Zm-1.63-26.55c0-.24,0-.24.23-.24l-.23-.23Zm9.32,40.53.23-.23c-.23,0-.46,0-.46-.23-.47-.47-.7-.93-1.17-1.4,0-.47-.23-.7-.46-1.17-.24.47-.94-.46-1.63.7a3.52,3.52,0,0,0,1.63-.7c-.24,1.87-.24,2.1,1.63,2.57A.8.8,0,0,1,459.44,260.91Z" transform="translate(-20 -96.37)" style="fill:#fff"/><path d="M562.64,232.26c0,.46-.23.7-.46,1.16a49.07,49.07,0,0,1-1.63,5.36c-.7,1.86-1.4,3.73-2.1,5.83a127,127,0,0,1-5.36,13,.87.87,0,0,0-.23.7c-1.63,2.8-3.26,5.59-4.89,8.62-1.17,2.33-2.1,4.66-3,7a43.46,43.46,0,0,1-2.8,5.82,47.27,47.27,0,0,0-2.33,4.9c-1.16,2.33-2.33,4.89-3.49,7-1.63,3-7.92,17-17.24,16.55-13.05-.7-24.23-13.52-24.7-14.21-1.63-2.1-2.56-4.66-4-7.23-.7-1.4-1.4-3-2.09-4.42a8.44,8.44,0,0,1-.94-2.1c-.23-.47-.23-.93-.46-1.16-2.8-3.27-3.5-7.69-4.9-11.65v-2.57a14.91,14.91,0,0,1-1.86-8.38c0-.47-.46-.7-.46-1.17-.24-1.4-.47-2.56-.7-4a7.77,7.77,0,0,0-1.17-4.66c.23-1.16,1.4-2.09.23-3.26,0-1.16-.93-2.1-.23-3.49a3.62,3.62,0,0,0-.7-2.57c-.23-1.16-.93-2.56-.46-3.49.93-1.17.7-2.33.46-3.5-.23-1.63-.7-3.26,0-4.89,0-.23-.23-.7-.46-.7-.7-.93-.47-2.09-.47-3.26,0-1.4.23-2.79.23-4.19v-7.46c0-.23-.23-.7,0-.93,0-2.33.47-4.66.47-6.76,0-2.32,0-4.65.23-7a69.71,69.71,0,0,0,.93-7c.7-3.26.94-6.53,1.87-9.56.7-2.09.7-4.42,1.16-6.52.47-1.86.93-3.73,1.4-5.59a47.59,47.59,0,0,1,1.4-5.59c0-.23.23-.7.23-.93a60.28,60.28,0,0,0,2.56-8.62c1.64-3.5,2.1-7.46,4.2-10.49.23-.46,0-1.39.23-1.63.93-1.16.47-2.56,1.17-3.73a6.91,6.91,0,0,0,1.16-3c0-.47.47-.7.7-.94.93-1.86,2.56-3.26,2.56-5.59a.84.84,0,0,1,.23-.69c1.4-.7,1.4-2.33,1.87-3.5,1.63-3.73,4.19-7,6.52-10a56.26,56.26,0,0,1,8.39-9.78c1.4-1.4,3-2.8,4.66-4.2a.71.71,0,0,1,.46-.23c1.4-.93,2.8-1.63,4.43-.93a5.06,5.06,0,0,0,1.86,0c2.1-.93,3.73.47,5.13,2.1,0,.23.23.46.47.7a14.15,14.15,0,0,0,4.65,5.12,1.24,1.24,0,0,1,.7.93c.7,2.8,2.33,4.9,2.8,7.46a41.72,41.72,0,0,1,.23,5.36c0,1.86-.46,4-.46,5.82,0,7.45-1.63,14.68-3.5,21.67-1.4,4.65-3,9.08-4.66,13.74-.7,2.1-1.86,4-2.56,6.06-1.4,4-3.49,7.45-5.13,11.18-1.16,3-3,5.59-4.42,8.39-1.63,3.26-3.26,6.29-5.13,9.32-1.4,2.33-3,4.66-4.66,7-.93,1.39-1.86,3-2.79,4.42a4.67,4.67,0,0,0-.7,2.57c0,1.16-.23,2.32-.23,3.49-.24,1.16-.24,6.52-.47,7.45,0,2.8.23,5.36.23,7.93.24,4.19.47,8.15.7,12.34a34,34,0,0,0,.47,4.9c.46,4.65,1.16,9.31,1.4,14.21,0,1.39.69,2.79.93,4.19.7,3.49,1.16,7,1.86,10.48a13.33,13.33,0,0,0,.47,3.26,58.69,58.69,0,0,0,1.16,6.76c.7,1.86.7,4.19,2.1,5.59a.23.23,0,0,1,.23.24c.47,3.72,2.8,4.66,5.36,5.35a11.58,11.58,0,0,0,2.56.47A5.91,5.91,0,0,0,527,292.6a146.67,146.67,0,0,0,7.45-13.05A185.51,185.51,0,0,0,545.64,257a259.84,259.84,0,0,0,10.25-26.32q2.08-6.3,4.19-12.58c.47-1.17.93-2.1,1.4-3.26h1.63c4.89,2.79.46,13.27.7,14C563.34,229.93,562.41,230.86,562.64,232.26Zm-72-40.77c0,.23,0,.23.24.46a.71.71,0,0,1,.23-.46l-.23-.24Zm3.73,58.94c.7-.7,0-1.17,0-1.63-.23-.47,0-1.17,0-1.63,0-.7.24-1.4,0-1.87s-.7-.69-.93-1.16c0-.47.23-1.17.23-1.63a46.1,46.1,0,0,1-.46-5.83c-.24-1.63-.47-3.26-.7-4.89a3.74,3.74,0,0,0-.47-1.16c-.23.46-.46.46-.46.7.46,4.19.93,8.15,1.39,12.34,0,.24.24.24.47.47A9.31,9.31,0,0,0,494.38,250.43Zm0,1.86v0Zm.47,2.33a.23.23,0,0,0-.23.24c0,.23.23.23.23.46l.23-.23C495.08,254.86,494.85,254.86,494.85,254.62Zm.46,2.57v0ZM505.8,114.61c-.7,1.16-1.4,2.56-2.1,3.73-.23.23-.23.69-.23,1.63a52.51,52.51,0,0,0,3.26-6.06.81.81,0,0,0,.23-.47c.24,0,0-.23,0-.23l-.23.23a.33.33,0,0,0,0,.47C506.5,114.14,506,114.38,505.8,114.61ZM520,113.44c-.7,1.87-.47,4-1.63,5.83a5.53,5.53,0,0,1-1.17,4.19,1.41,1.41,0,0,0-.23.93c.7,1.63-.47,3-.7,4.66a36.59,36.59,0,0,0-.93,4.89c-.7,4-5.59,21.21-10,58,.47-.23.93-.46.93-.7a137.24,137.24,0,0,0,8.16-12.11,90.74,90.74,0,0,0,8.85-18.64c.7-1.63,1.63-3,1.17-4.89a1.77,1.77,0,0,1,.46-.93c.47-1.63,1.17-3.26.93-4.89a2.69,2.69,0,0,1,.7-1.87,2.37,2.37,0,0,0,.47-2.09,8.37,8.37,0,0,1,.46-2.33c.7-4,1.87-7.69,2.57-11.65.46-3.5.7-7,.93-10.49v-.23c-.23-4-2.1-6.75-3.73-9.78-.23-.47-.93-.93-1.16-.7-1.4.46-2.8-.47-4.43-.47A10.7,10.7,0,0,0,520,113.44ZM560.08,233h.23v-.24h-.23Zm.93-1.87c.7-1.16.93-1.86,1.4-2.79C561.48,228.76,561.48,228.76,561,231.09Z" transform="translate(-20 -96.37)" style="fill:#fff"/><path d="M548.43,257.19c-2.33-4.2-4.2-8.86-3.73-13.75a41,41,0,0,1,3-12.81c1.86-4.66,4.66-8.62,7-12.82.46-.7,1.16-1.63,1.63-2.33a44.59,44.59,0,0,1,8.62-10,16.62,16.62,0,0,1,7.92-3.73c2.1-.23,4-.7,6.06-.93,2.79-.47,5.59-.47,7.92,1.86l.7.7c1.86,1.16,3.49,2.1,5.36,3.26a30.66,30.66,0,0,0,3.49-4.19c1.86-2.8,4.19-5.36,6.29-7.92,3-3.5,7.22-4.66,11.88-4.2a6.93,6.93,0,0,1,3.5,1.63,41.86,41.86,0,0,1,4.89,4c.46,2.33,1.4,4.9,1.4,7.46a29.05,29.05,0,0,1-.7,7.69c-.47,2.09-1.17,4.42-1.63,6.52-1.4,7-4,13.28-4.9,20.27-.7,6.29-1.63,12.35-.7,18.64.47,2.33,1.17,4.66,1.87,7.22a3.52,3.52,0,0,0,.93,2.1,3.81,3.81,0,0,0,6.29,0,11.12,11.12,0,0,0,1.4-2.1c4.89-5.83,8.15-12.82,11.88-19.34,1.4-2.56,3-4.89,4.19-7.22,1.17-2.1,2.1-4.19,3.27-6.29,3.26-6.06,6.29-12.11,9.78-17.94a42.44,42.44,0,0,1,2.8-4.19c1.16-1.4,2.33-2.57,3.72-4a8.84,8.84,0,0,1,2.33.23c0,.47.24.93,0,1.4-1.39,4.19-3,8.39-4.66,12.35a26.64,26.64,0,0,1-2.79,5.82c-3.5,6.76-7.22,13.28-11,19.8-1.17,1.87-2.33,3.26-3.26,4.89a29.91,29.91,0,0,0-4,7c-.94,1.87-2.1,3.27-3.27,5.13-1.63,2.56-3.26,5.36-5.12,7.92a8,8,0,0,1-1.17,1.86,11,11,0,0,1-9.55,5.83,39.8,39.8,0,0,1-10.48-.7,12.82,12.82,0,0,1-5.36-3.26c-4.43-4.43-6.52-9.79-8.15-15.61-2.1-6.29-1.17-12.35-.47-18.64a107.18,107.18,0,0,1,2.1-11.88c.46-2.33,1.4-4.89,1.86-7.22.7-2.1.93-4,1.63-6.53a9.6,9.6,0,0,0-1.4,1.17c-1.63,2.79-3.26,5.59-5.12,8.15l-6.29,9.79c-3.26,4.89-6.52,9.78-9.55,14.91-.24.23-.7.46-.7.93-.23,3-2.33,5.13-4.19,7.45-.94,1.17-1.87,2.57-2.8,4-1.17,1.86-3,2.79-4.89,4-1.4.93-3,.46-4.66.23-2.1-.47-4.2-1.17-6.53-1.63-.46-.24-.69-.47-.46-1.17v-.23c-.7-.7-1.4-1.63-2.56-1.4-.7-1.16-.7-1.16-1.63,0C549.83,258.58,548.89,258.12,548.43,257.19Zm11.18-2.1c0,.93.7,1.16,2.1.93-1.63-5.59-.24-10.95.46-16.54A32.54,32.54,0,0,0,559.61,255.09Zm7.92-4.2c.23-.46.47-.69.47-.93,2.56-4,4.89-7.92,7.45-11.88,1.17-1.63,2.1-3.49,3.26-5.12,1.17-1.87,2.33-3.5,3.5-5.36.93-1.63,2.1-3.5,3.26-5.13,1.63-2.79,3.5-5.36,4.89-8.15.93-2.1.47-3.5-.7-5.13a7.79,7.79,0,0,0-4.42-2.56c-.24.47-.7.7-.93,1.17-1.4,1.86-2.57,3.72-4,5.82a10.48,10.48,0,0,0-1.87,2.56c-2.33,4.66-4.19,9.32-6.76,13.75-.23.46-.23.93-.46,1.4a63,63,0,0,1-2.1,6,41.84,41.84,0,0,0-2.33,13.05C567.07,250.66,567.3,250.66,567.53,250.89Zm7-40.76c0-.24,0-.24-.23-.24-.23.24-.23.47-.47.7a.73.73,0,0,1,.47.23A.84.84,0,0,0,574.52,210.13Zm1.86-1.87a.85.85,0,0,0-.23.47.85.85,0,0,1,.47.23.86.86,0,0,0,.23-.7Z" transform="translate(-20 -96.37)" style="fill:#fff"/><path d="M682.85,238.78c-2.09-5.12-6.75-22.13-7.22-27.72-.23-2.56-.7-5.13-1.16-7.92a2.11,2.11,0,0,0-.94,1.86c.24,2.8.24,5.59.7,8.15.24,2.1,3.26,15.61,3.73,17.48a6.71,6.71,0,0,0,.7,2.33,13.91,13.91,0,0,1,1.16,4.19,14.75,14.75,0,0,0,1.63,4c.24.47.94,1.17.7,1.63-.23,1.63.7,2.56,1.63,3.5a5.18,5.18,0,0,1,1.87,2.56c.7,2.56,2.79,4.43,4.89,6.29,1.63-2.33,2.1-4.89,2.56-7.46,2.1-8.38,5.36-48.22,10-58.24,1.4-3.26,3-6.52,4.66-9.78a3.66,3.66,0,0,1,2.56-2.33,26.68,26.68,0,0,1,4.66-1.17,20.24,20.24,0,0,0,3.73-.7,11.48,11.48,0,0,0-.7-1.63c2.1.24,2.8,2.56,4.89,2.56-.23-.69-.7-1.16-.93-1.86.23,0,.7-.23.93,0,1.63.7,3.5,1.17,4.43,3,.46.7,1.63.93,2.1,1.4a30.22,30.22,0,0,1,4.42,5.12c2.57,4.43,4.89,8.86,6.06,14,.7,3.5,1.63,7.22,1.16,11,0,1.86.24,3.73.24,5.59-.24,1.87.46,4-.7,5.83v.69c.7,1.64,0,3.27-.47,4.9,0,.46-.46.93-.23,1.16,1.16,2.8-.47,5.36,0,8.16,0,.69-.93,1.39-.23,2.56.23.47-.24,1.4,0,2.1a11.34,11.34,0,0,1-.7,4.89,5.24,5.24,0,0,0,.23,4.19,6.43,6.43,0,0,1,0,2.1c-.47,1.63-.93,3,0,4.66.23.23,0,1.16,0,1.86a13,13,0,0,1-.7,1.17c.7.7-.23,1.63.23,2.09,1.17.93-.23,1.87.47,2.8s-.23,1.86-.47,2.56a4.75,4.75,0,0,0,.24,1.17c.46,1.63.7,3.26-.47,4.66.47.46.7,1.16,1.17,1.63a5.38,5.38,0,0,0,.23.93c-1.4,1.63,0,3.26.23,4.66a25.08,25.08,0,0,1,.47,4,19.57,19.57,0,0,0,1.86,7.45,35.37,35.37,0,0,0,2.8,3.27,9.78,9.78,0,0,1,3.26-1.4c0,.23.23.46.47.93a16.13,16.13,0,0,0,5.59-4.19,51.84,51.84,0,0,0,7.92-14.45c.93-2.1,1.63-4,2.33-6.06.46-1.16,1.86-2.09,1.86-3.72,0-1.17.93-2.33,1.4-3.73s.7-2.8,1.16-4.19c.24-1.17.7-2.57.94-3.73.93-3.26,2.09-6.53,2.79-9.79,1.17-5.35,2.33-10.71,3.5-16.3a.23.23,0,0,1,.23-.24c.7-.23,1.16-.93,2.1-.46A2.35,2.35,0,0,1,780,229a25.63,25.63,0,0,1-.7,4.19c-1.4,5.82-3,11.65-4.66,17.47-1.16,4.89-2.1,9.55-3.26,14.45-.93,4.42-1.63,9.08-3.49,13.28a15.21,15.21,0,0,0-1.4,4.66,22.21,22.21,0,0,1-2.33,6.52,40.62,40.62,0,0,1-11.88,14.68,11.07,11.07,0,0,1-4.43,2.09,11.72,11.72,0,0,0-3,.7c-2.56.7-5.12,1.63-7.69,0a.84.84,0,0,0-.69-.23c-3.27.23-5.36-1.87-7.23-4.2a6.2,6.2,0,0,0-1.16-1.39,5.17,5.17,0,0,1-1.17-1.87c-.7-1.39-1.16-2.79-1.86-4.19s-.93-3-2.33-4c-1.16-3.26-3-6.52-3.26-10a9.72,9.72,0,0,0-.93-3.73,8.79,8.79,0,0,1-.24-3.49,16.68,16.68,0,0,0-.23-3.26c-.23-.93,0-1.87-.46-3s-.24-2.56-.24-4a24.88,24.88,0,0,0-.23-7.22.73.73,0,0,1,0-.94,15,15,0,0,0,0-5.59,15.19,15.19,0,0,1,.47-5.59c-1.17-2.56.69-5.36,0-8.15,1.16-2.56,0-5.36,1.16-8.16-.47-3.49.47-7,.47-10.48a38.5,38.5,0,0,1,.46-5.12c0-.94-.23-2.1-.23-3.27a51.13,51.13,0,0,0-.7-13.28,25.72,25.72,0,0,0-3.5-9.78c-.69-.93-2.33-3-4.42-.47-5.36,10.72-8.39,50.32-9.32,54.05-.47,2.57-.7,5.13-1.17,7.69a39.06,39.06,0,0,1-2.79,10.25c-.7,2.1-2.1,3.73-3,5.36-.23.47-.7.93-.93.93-2.56.93-4.89,1.87-7.69.93-1.63-.69-3.49-.93-5.12-2.33-2.1-1.63-4.66-2.56-7-4.19a5.73,5.73,0,0,1-2.57-2.1c-1.16-2.79-3.26-4.66-5.12-6.75-1.87-2.33-3.73-4.66-4.19-7.69a35.08,35.08,0,0,1-3-6.76c-1.4-3-4.2-18.17-4.9-21.66a42.77,42.77,0,0,1-.7-10.95c-.93-2.1,0-4.43-.46-6.53a5.78,5.78,0,0,1,.23-2.79c0-1.17-.23-2.33-.23-3.5-.47-2.56-.7-5.12-.93-7.68a4.75,4.75,0,0,0,0-4.66c-.24,0-.24-.47-.24-.47a8.07,8.07,0,0,0,.47-4.66c-.23-1.4.47-3,.7-4.42A5.5,5.5,0,0,0,654,167a2.45,2.45,0,0,0,.47-1.17c-1.63-.93-1.17-2.33-.47-4.19.24.93.24,1.63.47,2.33a36.55,36.55,0,0,0,.23-4.89c1.87-.47,1.63-2.33,1.63-3.5a23.61,23.61,0,0,1,.94-5.82c.23-.47,0-1.17,0-1.63a26.5,26.5,0,0,1,.93-4.66,7.82,7.82,0,0,1,1.63-2.57,11,11,0,0,1-.7-1.63c.93-.7,1.86-1.63,1.16-3.26a2.59,2.59,0,0,1,.24-1.86,19.05,19.05,0,0,0,1.86-5.13c0-.46.7-1.16,1.17-1.86a37.83,37.83,0,0,1,6.29-10c1.86-1.63,3.26-4,4.66-5.82a6.26,6.26,0,0,1,1.39-1.17c1.4-1.63,3-3,4.66-4.66a11.17,11.17,0,0,1,3.73-1.86,7.44,7.44,0,0,1,7,.93c.93.23,1.63.47,2.56.7.93.46,1.87.7,2.33,1.63a6.63,6.63,0,0,1-2.1-.47c0,1.17.47,1.4,1.17,1.4.47-.23.7-.7.93-.93.93.7,2.1,1.4,3.26,2.1.47.46.7,1.4,1.17,1.86-.24.7-.93.93-.7,1.86a8.39,8.39,0,0,1,.93,2.1,20.65,20.65,0,0,1,1.4,13.51c-.7,4-1.87,7.92-2.56,12.12a96.63,96.63,0,0,1-4.43,15.37c-.7,1.63-.93,3.5-1.63,5.36-.23.93-.7,2.1-.93,3-.7,1.4-1.17,2.56-1.63,3.73a130.84,130.84,0,0,1-7.69,16.31c-2.1,4-4,7.92-5.83,11.88a8.81,8.81,0,0,0-.93,4.66,56.55,56.55,0,0,1,.47,10.95c0,.23-.23.7,0,.93,1.4,1.86,3.49,15.61,4.19,17.7.47,1.87,1.17,4,1.63,6.06.23.47.7,1.17.93,1.63,0,.47-.23.93-.23,1.4h.23A3.25,3.25,0,0,1,682.85,238.78Zm-29.59-63.6v0Zm9.09-24.7c.7-2.09,1.17-3.72,1.63-5.59a18.79,18.79,0,0,0,.93-3.49c.24-.7-.23-.93-.93-.93A26.62,26.62,0,0,0,662.35,150.48Zm2.56-12.11h-.23v.23Zm7.46,41.47c0,3.26-.23,6.52-.23,9.78,0,.7.46,1.63.46,2.57a2.57,2.57,0,0,0,1.63-2.57c-.23-4.65-.46-9.08-.7-14.44A13.75,13.75,0,0,0,672.37,179.84Zm1.16-5.82a5.25,5.25,0,0,0,.7-4.2C672.84,171.22,673.07,172.38,673.53,174Zm1.63-10.72c0-.23-.69-.7-.93-.47a1.07,1.07,0,0,0-.7.7c-.23.93.47,1.4,1.4,1.63-.7.93-1.4,1.87-.93,3a15.92,15.92,0,0,1,2.1-1.4,35.21,35.21,0,0,1-.24,8.62c-.46,2.33,0,4.66-.23,7a1.78,1.78,0,0,0,.23,1.17,1.09,1.09,0,0,0,1.17,1.16c.93-1.86,1.86-4,2.79-6.06,4.2-9.55,7.93-19.56,11.19-29.58A33.1,33.1,0,0,0,692.4,144c.94-4.42,1.87-8.62,2.57-13a24.72,24.72,0,0,0,0-5.83c-.24-3.73-1.4-7.22-4.9-9.55-1.39-1.16-1.39-1.16-3,.47a14.25,14.25,0,0,1,.93,1.39c-2.57,1.87-3.73,4.9-5.36,7.46a2.5,2.5,0,0,0-.7,1.63,42.55,42.55,0,0,1-2.33,7.69c0,.23-.23.23-.47.46h-1.39c-.7,2.8-.7,2.8.93,5.13-.23.93-.47,1.63-.7,2.56-.23.7-.93.7-1.63.23a1.41,1.41,0,0,1-.93-.23c.7,2.33,2.33,4.43.7,7a12.49,12.49,0,0,0,1.39,1.86,17.63,17.63,0,0,1-2.79,1.64,1.39,1.39,0,0,0-.47,1.86c.7.23,1.63.47,2.57.7a3.31,3.31,0,0,1,.23,2.09c0,.94-.93,2.33-.47,3,.47,1.17,0,2.33.24,3.26,0,1.17-.24,1.4-2.1,1.4A4.39,4.39,0,0,0,675.16,163.3Zm-.69-2.8c-.24,0-.47.47-.47.7.23.23.47.23.93.47l.47-.47C675.16,161,674.7,160.74,674.47,160.5Zm.69-4c-.23.47-.93.93-.93,1.4a1.92,1.92,0,0,0,.7,1.86c.47,0,.93-.69,1.17-1.63,0-.46-.24-.93-.24-1.39A.83.83,0,0,0,675.16,156.54Zm0-8.85a.36.36,0,1,0-.69.23.79.79,0,0,1,.46.24C675.16,147.92,675.16,147.92,675.16,147.69Zm.47,107.86c0,.24.23.24.23.47h.24c0-.23-.24-.47-.24-.7Zm3-110.89c0-.23,0-.23-.23-.46h.23l.23.23Zm.23-8.85v.46c-.23,0-.23,0-.23-.23A.23.23,0,0,1,678.89,135.81ZM682.15,109c-1.63.93-2.33,1.86-3.26,4.42.93-.7,1.63-1.16,2.56-1.86.94-.47,1.87-1.16,2.8-1.63C683.08,108.78,682.85,108.78,682.15,109Zm3.5-3.5c-.93.47-1.87.7-2.1,2.1a13.94,13.94,0,0,1,1.86.7l3.5-2.8A3.26,3.26,0,0,0,685.65,105.52ZM684.72,242c-.94-.7-1.4-1.63-.94-2.56h-.23C684.72,240,684.48,240.88,684.72,242ZM691,106.22c-3,.93-3,.93-4,2.8,1.86-.24,3.49-.47,6.05-.7Zm11.65,8.16c.23.69.46,1.39.69,2.32a16.68,16.68,0,0,1-2.79-5.82C702,111.58,702.19,113.21,702.66,114.38Zm1.16,7.68a.23.23,0,0,0-.23-.23c0-.23.23-.23.23-.47v.7Zm7.45,60.34v.7c.24-.23.47-.23.47-.46A.8.8,0,0,0,711.27,182.4Zm11-3.26a.23.23,0,0,0,.24.23v-.46h-.24Zm3.5,2.8a.23.23,0,0,0-.23.23c.23.23.46.47.69.47v-.24Zm4,14c.7,3.5,0,7,1.16,10.49C731.31,202.9,731.78,199.18,729.68,195.91ZM730.84,260c0-.7-.23-1.16-.46-.7-.7.47,0,.93.23,1.17C730.61,260.21,730.84,260.21,730.84,260ZM732,276.75h-.23V277Zm0,3.27c.47,3.49.93,6.75,1.4,10a2.94,2.94,0,0,0,2.09,2.8c0-4.66-1.86-9.09-3-14C732.24,279.55,732,279.78,732,280Zm5.12,19.33h-.23v.47l.23-.23Zm24.7-9.78a24.76,24.76,0,0,1-6.76,6.29c-.7.46-1.4.7-1.4,1.63a4,4,0,0,0,2.8-.23c3.26-2.33,5.83-5.13,7-9.09,0-.23.23-.23.23-.47.24,0,0,0,0-.23,0,.23-.23.47-.23.7C762.53,288.17,762.3,289.1,761.83,289.57Z" transform="translate(-20 -96.37)" style="fill:#fff"/></svg>